<?xml version="1.0" standalone="no"?>
<!DOCTYPE svg PUBLIC "-//W3C//DTD SVG 20010904//EN"
 "http://www.w3.org/TR/2001/REC-SVG-20010904/DTD/svg10.dtd">
<svg version="1.0" xmlns="http://www.w3.org/2000/svg"
 width="270.000000pt" height="450.000000pt" viewBox="0 0 270.000000 450.000000"
 preserveAspectRatio="xMidYMid meet">
<metadata>
Created by potrace 1.15, written by Peter Selinger 2001-2017
</metadata>
<g transform="translate(0.000000,450.000000) scale(0.100000,-0.100000)"
fill="#000000" stroke="none">
<path d="M0 4456 l0 -44 63 -11 c34 -6 175 -26 312 -46 138 -19 288 -43 335
-51 47 -9 99 -18 115 -20 17 -2 98 -14 180 -28 83 -14 179 -30 215 -36 36 -6
106 -17 155 -25 50 -8 93 -15 98 -15 4 0 7 -8 7 -18 0 -14 -8 -18 -37 -19 -21
-1 -41 3 -44 8 -3 6 -34 3 -77 -8 -71 -17 -74 -16 -269 11 -109 16 -207 30
-218 32 -181 31 -826 116 -832 110 -7 -6 25 -14 92 -21 109 -11 648 -86 1017
-142 l107 -16 -27 -21 c-14 -11 -28 -19 -31 -18 -2 2 -7 -2 -12 -10 -5 -7 -12
-13 -16 -13 -4 -1 -21 -8 -38 -17 -16 -8 -36 -13 -43 -11 -6 3 -12 0 -12 -7 0
-6 -4 -9 -9 -6 -5 3 -20 -3 -34 -14 -14 -11 -29 -20 -34 -20 -5 0 -28 -19 -50
-42 -56 -58 -121 -186 -128 -252 -2 -28 -8 -62 -11 -76 -4 -14 -9 -124 -11
-245 -4 -204 -3 -225 16 -280 12 -33 21 -72 21 -87 0 -15 5 -28 10 -28 6 0 10
17 11 38 0 20 3 60 6 87 4 28 5 79 4 115 -6 131 -1 209 17 258 6 15 16 56 23
92 12 64 40 125 51 114 4 -3 9 8 13 25 3 17 19 41 35 55 16 13 27 26 25 28 -2
2 5 10 17 17 16 10 19 10 12 -1 -8 -14 12 0 50 34 10 10 40 21 65 25 69 12
251 9 291 -5 19 -6 50 -13 68 -14 19 -1 36 -6 38 -10 3 -4 20 -8 37 -8 47 -1
201 -36 250 -58 65 -29 148 -117 187 -197 19 -38 38 -72 41 -75 3 -3 6 -12 7
-20 0 -8 5 -41 11 -73 5 -32 8 -64 5 -71 -3 -8 -1 -17 5 -21 19 -11 12 102
-13 226 -37 183 -145 390 -243 462 -16 12 -31 27 -32 32 -2 6 -19 19 -39 30
-21 11 -38 23 -40 26 -2 4 -11 5 -21 2 -10 -3 -22 0 -25 6 -4 6 -14 11 -22 11
-9 0 -22 7 -30 15 -9 8 -29 15 -45 15 -16 0 -32 6 -34 13 -2 6 -7 77 -9 156
-3 79 -7 145 -9 147 -2 2 -56 15 -120 29 l-117 25 -640 0 -640 0 0 -44z"/>
<path d="M989 3366 c-30 -12 -91 -75 -84 -87 3 -4 24 -1 47 7 51 18 155 18
188 -1 19 -10 21 -15 10 -18 -8 -3 -22 -8 -30 -10 -8 -3 1 -6 20 -6 19 -1 58
-12 86 -25 48 -22 51 -23 47 -5 -3 10 0 20 6 20 6 1 16 3 21 4 6 1 13 3 18 4
4 1 2 5 -3 9 -6 4 -18 18 -26 32 -16 25 -53 40 -179 74 -61 17 -85 17 -121 2z"/>
<path d="M1745 3300 c-51 -7 -108 -31 -120 -50 -4 -6 -10 -8 -14 -6 -4 3 -8
-2 -8 -11 0 -13 10 -14 64 -10 35 3 67 9 73 12 5 3 51 8 102 11 137 7 156 18
83 48 -35 15 -100 17 -180 6z"/>
<path d="M1061 3163 c-54 -10 -118 -81 -89 -99 17 -11 68 -12 68 -2 0 5 4 6
10 3 5 -3 8 0 5 7 -7 18 15 48 22 31 24 -61 90 -65 118 -7 l16 35 31 -22 c20
-15 29 -17 26 -8 -2 8 -22 26 -44 41 -39 27 -93 34 -163 21z"/>
<path d="M1730 3120 c-41 -7 -75 -25 -104 -53 l-21 -19 22 11 c12 6 25 16 28
21 10 16 45 12 45 -5 0 -24 38 -55 66 -55 15 0 35 9 45 21 l18 20 11 -21 c8
-15 19 -20 38 -18 40 5 39 32 -3 63 -40 31 -93 44 -145 35z"/>
<path d="M1527 2567 c-3 -7 1 -21 9 -32 8 -10 14 -13 14 -7 0 7 9 3 20 -8 11
-11 27 -20 36 -20 9 0 27 -9 41 -20 14 -11 28 -18 32 -16 4 3 7 -4 7 -15 0
-24 -12 -24 -62 0 -22 11 -45 16 -53 11 -7 -4 -30 -4 -50 0 -45 10 -111 8
-130 -4 -8 -5 -16 -4 -22 5 -7 12 -9 12 -9 0 0 -10 -3 -11 -14 -2 -10 9 -25 9
-53 3 -21 -6 -53 -13 -71 -16 l-33 -6 28 23 c15 13 44 30 63 37 19 8 39 20 43
27 5 7 12 11 18 8 5 -4 9 -1 9 4 0 29 -112 5 -124 -26 -4 -8 -16 -13 -30 -11
-33 4 -57 -19 -50 -48 5 -18 2 -24 -11 -24 -9 0 -13 5 -10 10 3 6 2 10 -4 10
-6 0 -8 -12 -5 -28 5 -22 -2 -40 -27 -75 -34 -48 -49 -58 -49 -32 0 8 -7 15
-15 15 -8 0 -15 5 -15 12 0 6 -3 9 -6 6 -8 -9 -64 52 -64 69 0 7 -6 16 -14 19
-8 3 -12 12 -9 20 3 8 -1 22 -9 32 -9 9 -18 24 -22 32 -3 8 -3 -1 0 -20 11
-63 42 -147 83 -226 23 -42 41 -89 41 -104 0 -43 -72 -104 -165 -140 -112 -44
-156 -68 -233 -125 -68 -52 -232 -122 -336 -145 -64 -14 -95 -31 -138 -75 -60
-62 -86 -127 -94 -234 -6 -79 -10 -94 -26 -99 -24 -6 -27 -92 -3 -92 19 0 19
-4 -2 -47 -14 -30 -14 -36 -2 -45 10 -6 10 -11 3 -14 -8 -4 -12 -163 -13 -579
l-2 -575 1350 0 1351 0 0 904 0 905 -52 24 c-29 14 -63 28 -75 31 -12 4 -32
19 -43 34 -20 25 -22 25 -67 14 -42 -12 -47 -11 -65 8 -46 49 -115 72 -258 85
-104 9 -106 10 -145 68 -38 57 -70 97 -79 97 -3 0 -6 -34 -6 -75 0 -117 -66
-284 -175 -440 -23 -33 -67 -104 -99 -157 -54 -90 -60 -97 -96 -103 -95 -16
-188 -81 -239 -168 -26 -43 -35 -41 -52 11 -15 45 -42 95 -124 227 -68 110
-85 140 -61 111 9 -11 16 -23 16 -28 0 -4 5 -8 11 -8 5 0 7 5 4 10 -3 6 -1 10
5 10 6 0 9 4 5 9 -3 5 -2 12 2 14 12 7 8 149 -4 172 -18 35 -55 197 -59 265
-3 36 -7 71 -9 78 -3 8 8 3 25 -10 33 -26 84 -123 95 -182 15 -86 85 -157 85
-86 0 17 -5 30 -12 30 -9 0 -9 3 1 9 13 8 13 12 1 26 -12 14 -12 18 0 25 8 5
19 5 25 1 10 -9 42 -16 125 -29 61 -10 210 13 268 41 39 18 53 33 86 92 21 39
42 72 45 75 25 20 120 193 136 248 5 17 2 22 -11 22 -10 0 -15 -3 -11 -6 3 -4
-1 -13 -9 -22 -14 -13 -17 -13 -26 -1 -7 10 -8 8 -3 -8 5 -17 2 -23 -9 -23 -9
0 -16 -6 -16 -12 0 -8 -3 -9 -8 -3 -4 6 -11 11 -17 12 -5 1 -18 5 -27 8 -13 5
-18 2 -18 -9 0 -9 -7 -16 -16 -16 -8 0 -12 -4 -9 -10 3 -5 -5 -21 -19 -35 -14
-14 -23 -31 -20 -39 3 -7 -11 -25 -31 -40 l-36 -28 7 26 c8 33 -3 33 -28 1
-11 -14 -26 -25 -35 -25 -9 0 -13 -6 -10 -14 8 -21 -56 -69 -72 -53 -8 8 -11
8 -11 -1 0 -17 -68 -12 -75 6 -4 12 -8 12 -22 1 -15 -12 -16 -12 -10 3 4 12 2
15 -8 12 -8 -3 -21 6 -30 20 -11 16 -27 26 -41 26 -24 0 -29 18 -9 32 6 4 2 8
-7 8 -19 0 -22 11 -12 48 6 20 11 23 43 17 136 -22 226 -23 248 -2 2 3 18 1
34 -3 27 -8 29 -7 23 12 -5 15 -3 19 7 13 12 -7 12 -5 1 6 -18 20 -346 24
-365 5 -16 -17 -82 -33 -73 -18 3 6 -9 16 -29 22 -41 14 -46 40 -12 67 12 10
23 27 25 38 5 31 31 47 49 29 8 -7 19 -14 24 -14 5 0 9 -7 9 -16 0 -10 6 -14
14 -11 8 3 16 1 18 -5 2 -6 16 0 31 14 36 33 52 36 177 25 58 -5 112 -8 120
-8 8 1 44 2 80 3 36 0 57 3 47 5 -15 4 -18 12 -15 34 3 16 1 29 -3 29 -5 0 -6
6 -3 14 5 14 -22 30 -36 21 -4 -3 -10 2 -14 10 -3 8 -10 15 -16 15 -6 0 -24
10 -40 21 -16 12 -35 19 -44 16 -10 -4 -13 -1 -9 9 3 8 -1 14 -10 14 -8 0 -17
-6 -20 -13z"/>
</g>
</svg>
